Coordinates
version=1
nRows=4
nColumns=124
inDegrees=yes

Units are S.I. units (second, meters, Newtons, ...)
If the header above contains a line with 'inDegrees', this indicates whether rotational values are in degrees (yes) or radians (no).

endheader 
time	pelvis_tilt	pelvis_list	pelvis_rotation	pelvis_tx	pelvis_ty	pelvis_tz	hip_flexion_l	hip_adduction_l	hip_rotation_l	hip_flexion_r	hip_adduction_r	hip_rotation_r	knee_angle_l	knee_angle_r	ankle_angle_l	ankle_angle_r	subtalar_angle_l	subtalar_angle_r	mtp_angle_l	mtp_angle_r	lumbar_extension	lumbar_bending	lumbar_rotation	arm_flex_l	arm_add_l	arm_rot_l	arm_flex_r	arm_add_r	arm_rot_r	elbow_flex_l	elbow_flex_r	glut_med1_l/activation	glut_med2_l/activation	glut_med3_l/activation	glut_min1_l/activation	glut_min2_l/activation	glut_min3_l/activation	semimem_l/activation	semiten_l/activation	bifemlh_l/activation	bifemsh_l/activation	sar_l/activation	add_long_l/activation	add_brev_l/activation	add_mag1_l/activation	add_mag2_l/activation	add_mag3_l/activation	tfl_l/activation	pect_l/activation	grac_l/activation	glut_max1_l/activation	glut_max2_l/activation	glut_max3_l/activation	iliacus_l/activation	psoas_l/activation	quad_fem_l/activation	gem_l/activation	peri_l/activation	rect_fem_l/activation	vas_med_l/activation	vas_int_l/activation	vas_lat_l/activation	med_gas_l/activation	lat_gas_l/activation	soleus_l/activation	tib_post_l/activation	flex_dig_l/activation	flex_hal_l/activation	tib_ant_l/activation	per_brev_l/activation	per_long_l/activation	per_tert_l/activation	ext_dig_l/activation	ext_hal_l/activation	ercspn_l/activation	intobl_l/activation	extobl_l/activation	glut_med1_r/activation	glut_med2_r/activation	glut_med3_r/activation	glut_min1_r/activation	glut_min2_r/activation	glut_min3_r/activation	semimem_r/activation	semiten_r/activation	bifemlh_r/activation	bifemsh_r/activation	sar_r/activation	add_long_r/activation	add_brev_r/activation	add_mag1_r/activation	add_mag2_r/activation	add_mag3_r/activation	tfl_r/activation	pect_r/activation	grac_r/activation	glut_max1_r/activation	glut_max2_r/activation	glut_max3_r/activation	iliacus_r/activation	psoas_r/activation	quad_fem_r/activation	gem_r/activation	peri_r/activation	rect_fem_r/activation	vas_med_r/activation	vas_int_r/activation	vas_lat_r/activation	med_gas_r/activation	lat_gas_r/activation	soleus_r/activation	tib_post_r/activation	flex_dig_r/activation	flex_hal_r/activation	tib_ant_r/activation	per_brev_r/activation	per_long_r/activation	per_tert_r/activation	ext_dig_r/activation	ext_hal_r/activation	ercspn_r/activation	intobl_r/activation	extobl_r/activation	
          1.19135535	         -2.97355829	         -1.91186581	          7.71945326	          0.78509596	          1.00348384	         -0.01220329	         -2.98774344	         -3.21586080	         -0.27849676	         16.24939012	          4.69182079	          7.77871095	        -35.19286617	        -20.87265169	          4.81942631	         10.32643735	         -3.82636990	        -14.82807588	         16.69452242	          4.61165876	          2.32634676	          6.04269800	         -4.08704812	         -8.64531460	        -13.47190508	         16.87910380	        -21.32019548	        -13.46425900	         19.34878146	         88.03008365	         19.73531182	          0.05000093	          0.05000109	          0.05000252	          0.05000354	          0.05000305	          0.05000526	          0.05950643	          0.11540322	          0.09770690	          0.12307330	          0.20411866	          0.18592823	          0.34687405	          0.09296587	          0.05594490	          0.05001123	          0.20480531	          0.22101647	          0.21406215	          0.05001108	          0.05000745	          0.05000450	          0.35299191	          0.36532562	          0.25345817	          0.06334471	          0.05000355	          0.05000023	          0.05000007	          0.05000006	          0.05000004	          0.12615960	          0.12568867	          0.17885215	          0.29560466	          0.20025386	          0.18249966	          0.50261518	          0.05000094	          0.09697859	          0.45646908	          0.43101440	          0.44949520	          0.15757093	          0.15387430	          0.23754882	          0.82516522	          0.92785268	          0.35420361	          0.55272270	          0.60615946	          0.15954791	          0.13346810	          0.10929164	          0.13615601	          0.05000078	          0.05000217	          0.05000021	          0.05000047	          0.05000560	          0.05000840	          0.07753511	          0.25644625	          0.05000200	          0.05000093	          0.22083210	          0.29263621	          0.06522260	          0.05000028	          0.05000030	          0.05000037	          0.05000209	          0.53823827	          0.05000142	          0.34874759	          0.38481648	          0.31313223	          0.05000033	          0.05000074	          0.14801903	          0.42715117	          0.20225658	          0.16495974	          0.17219640	          0.05000170	          0.05000077	          0.05000748	          0.07391035	          0.09569908	          0.05000007	          0.05000019	          0.05000009	
          1.22355414	         -2.83511672	         -0.76779074	          6.37481843	          0.80913472	          1.00759131	         -0.01040320	         -0.33056741	         -2.06746938	         -1.04864153	         14.20446978	          3.88401685	          9.15590936	        -41.38911680	        -20.25514771	          4.37036848	         10.82077717	         -3.48436705	        -13.89326191	         11.04999148	          5.60219672	          2.30077622	          6.14102005	         -4.25778221	         -7.89252226	        -13.47858295	         17.20563027	        -24.91142670	        -13.46782123	         19.34779899	         96.60851181	         19.87263797	          0.05000091	          0.05000095	          0.05000207	          0.05000464	          0.05000355	          0.05000547	          0.05000856	          0.07510112	          0.06358479	          0.13912968	          0.30300319	          0.17709463	          0.22656546	          0.06050582	          0.05001019	          0.05000234	          0.31493182	          0.27303639	          0.18137529	          0.05000929	          0.05000524	          0.05000248	          0.38385941	          0.38225540	          0.21016644	          0.08277172	          0.05000472	          0.22898152	          0.05000011	          0.05000009	          0.05000007	          0.08210147	          0.08179756	          0.11639127	          0.24935804	          0.15313002	          0.11876626	          0.34024925	          0.06656567	          0.06311066	          0.35390164	          0.46421414	          0.40969414	          0.14434677	          0.21061651	          0.25401428	          0.84869756	          0.93637598	          0.34676241	          0.50477449	          0.57084140	          0.14944244	          0.15063496	          0.10305332	          0.14754888	          0.05000083	          0.05000320	          0.05000018	          0.05000045	          0.05000508	          0.05000754	          0.05088689	          0.22994019	          0.05000180	          0.05000086	          0.20320469	          0.28098918	          0.05003757	          0.05000031	          0.05000032	          0.05000041	          0.05000423	          0.48435796	          0.05000117	          0.33139448	          0.36060500	          0.29123380	          0.05000042	          0.05000097	          0.18606833	          0.42465892	          0.20430764	          0.17647981	          0.14233524	          0.05000126	          0.05000061	          0.05000678	          0.05000475	          0.06230723	          0.05000006	          0.05000022	          0.05000010	
          1.25575293	         -2.71038754	          0.23090629	          4.98257540	          0.83189292	          1.01113032	         -0.00838318	          2.16367851	         -0.87055147	         -1.59813540	         12.30091191	          3.09993838	         10.38668668	        -44.99503020	        -19.58637731	          6.73222714	         11.22481904	         -3.84071738	        -12.87695229	          7.21254356	          6.60879851	          2.22009002	          6.18845318	         -4.36258808	         -6.33857862	        -13.47066518	         17.53340688	        -27.72086655	        -13.46779947	         19.34885715	        103.72059770	         19.45480716	          0.05000108	          0.05000114	          0.05000238	          0.05000601	          0.05000457	          0.05000628	          0.05000914	          0.05000105	          0.05000073	          0.26203468	          0.32393544	          0.15869431	          0.15946760	          0.05001486	          0.05001102	          0.05000255	          0.35668637	          0.21748927	          0.19458843	          0.05000838	          0.05000432	          0.05000236	          0.37930272	          0.38274016	          0.19874131	          0.06464208	          0.05000462	          0.29925990	          0.05000015	          0.05000014	          0.05000010	          0.06308323	          0.05610861	          0.07574377	          0.16227680	          0.10762218	          0.07729035	          0.28959098	          0.05000114	          0.05000044	          0.23030876	          0.39771348	          0.37257819	          0.12680013	          0.23682164	          0.24037100	          0.90352058	          0.97976380	          0.33392355	          0.52919922	          0.58353159	          0.15028618	          0.15881536	          0.07925915	          0.14927592	          0.05000098	          0.05000388	          0.05000018	          0.05000047	          0.05000487	          0.05000753	          0.05003580	          0.26937122	          0.05000177	          0.05000088	          0.17170879	          0.23718663	          0.05001777	          0.05000034	          0.05000035	          0.05000038	          0.05000374	          0.47622388	          0.05096802	          0.30525807	          0.33151143	          0.26736757	          0.05000041	          0.05000128	          0.21872559	          0.41487509	          0.19413365	          0.17691323	          0.10442696	          0.05000109	          0.05000058	          0.05000530	          0.05000330	          0.05004777	          0.05000007	          0.05000021	          0.05000012	
          1.28795173	         -2.60587804	          1.06491500	          3.59545369	          0.85332133	          1.01405780	         -0.00619265	          4.70434610	          0.24654931	         -1.97393862	         10.52407609	          2.37534123	         11.48976637	        -46.22604559	        -18.83989842	          9.95918959	         11.51565681	         -4.67637481	        -11.85960256	          4.69641633	          7.57633092	          2.06775167	          6.20337300	         -4.39730436	         -4.06850810	        -13.46417653	         17.72124595	        -29.72428528	        -13.46378841	         19.34801347	        109.19657524	         18.57585503	          0.05000126	          0.05000136	          0.05000275	          0.05000707	          0.05000554	          0.05000714	          0.05000769	          0.05000117	          0.05000071	          0.42103379	          0.31773691	          0.13719954	          0.10810054	          0.05001573	          0.05001044	          0.05000245	          0.38770659	          0.16986617	          0.19545254	          0.05000711	          0.05000355	          0.05000225	          0.34816444	          0.36652621	          0.18447111	          0.07338139	          0.05000516	          0.23201680	          0.05000021	          0.05000019	          0.05000014	          0.05000299	          0.05000623	          0.05000025	          0.14362788	          0.07759847	          0.05029992	          0.28873099	          0.05000109	          0.05000047	          0.14987958	          0.32943619	          0.35841460	          0.12046240	          0.25129043	          0.23340040	          0.95967490	          0.99356686	          0.31650988	          0.56070124	          0.60538467	          0.14957103	          0.14269128	          0.06174199	          0.12985386	          0.05000095	          0.05000348	          0.05000017	          0.05000048	          0.05000466	          0.05000761	          0.05003940	          0.32351206	          0.05000165	          0.05000086	          0.16106588	          0.21707509	          0.05001580	          0.05000034	          0.05000035	          0.05000035	          0.05000348	          0.46572584	          0.12708287	          0.28344051	          0.30558458	          0.24647338	          0.06078825	          0.05000171	          0.24585605	          0.40325963	          0.18074160	          0.17284201	          0.06796278	          0.05000151	          0.05000082	          0.05000512	          0.05000222	          0.05000948	          0.05000007	          0.05000020	          0.05000013	
